<svg xmlns="http://www.w3.org/2000/svg" width="100%" height="100%" viewBox="0 0 1920 1080" preserveAspectRatio="xMidYMid slice">
  <defs>
    <pattern id="grid" width="50" height="50" patternUnits="userSpaceOnUse">
      <path d="M 50 0 L 0 0 0 50" fill="none" stroke="#4A90D9" stroke-width="0.6" opacity="0.18"/>
      <circle cx="0" cy="0" r="1.8" fill="#4A90D9" opacity="0.25"/>
    </pattern>
    <radialGradient id="glow1" cx="8%" cy="12%" r="45%">
      <stop offset="0%" stop-color="#4A90D9" stop-opacity="0.18"/>
      <stop offset="100%" stop-color="#4A90D9" stop-opacity="0"/>
    </radialGradient>
    <radialGradient id="glow2" cx="92%" cy="88%" r="45%">
      <stop offset="0%" stop-color="#3ABFBF" stop-opacity="0.15"/>
      <stop offset="100%" stop-color="#3ABFBF" stop-opacity="0"/>
    </radialGradient>
    <radialGradient id="glow3" cx="50%" cy="50%" r="50%">
      <stop offset="0%" stop-color="#5CB88A" stop-opacity="0.10"/>
      <stop offset="100%" stop-color="#5CB88A" stop-opacity="0"/>
    </radialGradient>
    <radialGradient id="glow4" cx="75%" cy="25%" r="35%">
      <stop offset="0%" stop-color="#4A90D9" stop-opacity="0.08"/>
      <stop offset="100%" stop-color="#4A90D9" stop-opacity="0"/>
    </radialGradient>
  </defs>

  <!-- Base -->
  <rect width="100%" height="100%" fill="#f5f0e8"/>

  <!-- Radial glows -->
  <rect width="100%" height="100%" fill="url(#glow1)"/>
  <rect width="100%" height="100%" fill="url(#glow2)"/>
  <rect width="100%" height="100%" fill="url(#glow3)"/>
  <rect width="100%" height="100%" fill="url(#glow4)"/>

  <!-- Grid -->
  <rect width="100%" height="100%" fill="url(#grid)"/>

  <!-- HEXAGONS (16) - larger, bolder -->
  <path d="M 80 100 L 115 80 L 150 100 L 150 140 L 115 160 L 80 140 Z" fill="none" stroke="#5CB88A" stroke-width="1.2" opacity="0.45"/>
  <path d="M 500 200 L 535 180 L 570 200 L 570 240 L 535 260 L 500 240 Z" fill="none" stroke="#3ABFBF" stroke-width="1.2" opacity="0.4"/>
  <path d="M 900 150 L 935 130 L 970 150 L 970 190 L 935 210 L 900 190 Z" fill="none" stroke="#4A90D9" stroke-width="1.2" opacity="0.45"/>
  <path d="M 1350 120 L 1385 100 L 1420 120 L 1420 160 L 1385 180 L 1350 160 Z" fill="none" stroke="#5CB88A" stroke-width="1.2" opacity="0.4"/>
  <path d="M 1700 200 L 1735 180 L 1770 200 L 1770 240 L 1735 260 L 1700 240 Z" fill="none" stroke="#3ABFBF" stroke-width="1.2" opacity="0.45"/>
  <path d="M 250 450 L 285 430 L 320 450 L 320 490 L 285 510 L 250 490 Z" fill="none" stroke="#4A90D9" stroke-width="1.2" opacity="0.4"/>
  <path d="M 700 500 L 735 480 L 770 500 L 770 540 L 735 560 L 700 540 Z" fill="none" stroke="#5CB88A" stroke-width="1.2" opacity="0.45"/>
  <path d="M 1100 400 L 1135 380 L 1170 400 L 1170 440 L 1135 460 L 1100 440 Z" fill="none" stroke="#3ABFBF" stroke-width="1.2" opacity="0.4"/>
  <path d="M 1550 480 L 1585 460 L 1620 480 L 1620 520 L 1585 540 L 1550 520 Z" fill="none" stroke="#4A90D9" stroke-width="1.2" opacity="0.45"/>
  <path d="M 150 750 L 185 730 L 220 750 L 220 790 L 185 810 L 150 790 Z" fill="none" stroke="#3ABFBF" stroke-width="1.2" opacity="0.4"/>
  <path d="M 600 800 L 635 780 L 670 800 L 670 840 L 635 860 L 600 840 Z" fill="none" stroke="#5CB88A" stroke-width="1.2" opacity="0.45"/>
  <path d="M 1000 700 L 1035 680 L 1070 700 L 1070 740 L 1035 760 L 1000 740 Z" fill="none" stroke="#4A90D9" stroke-width="1.2" opacity="0.4"/>
  <path d="M 1400 750 L 1435 730 L 1470 750 L 1470 790 L 1435 810 L 1400 790 Z" fill="none" stroke="#3ABFBF" stroke-width="1.2" opacity="0.45"/>
  <path d="M 1800 700 L 1835 680 L 1870 700 L 1870 740 L 1835 760 L 1800 740 Z" fill="none" stroke="#5CB88A" stroke-width="1.2" opacity="0.4"/>
  <path d="M 400 650 L 435 630 L 470 650 L 470 690 L 435 710 L 400 690 Z" fill="none" stroke="#4A90D9" stroke-width="1.2" opacity="0.35"/>
  <path d="M 1250 550 L 1285 530 L 1320 550 L 1320 590 L 1285 610 L 1250 590 Z" fill="none" stroke="#5CB88A" stroke-width="1.2" opacity="0.4"/>

  <!-- DIAMONDS (14) - larger -->
  <path d="M 300 180 L 330 210 L 300 240 L 270 210 Z" fill="none" stroke="#4A90D9" stroke-width="1.2" opacity="0.4"/>
  <path d="M 750 300 L 780 330 L 750 360 L 720 330 Z" fill="none" stroke="#3ABFBF" stroke-width="1.2" opacity="0.35"/>
  <path d="M 1200 250 L 1230 280 L 1200 310 L 1170 280 Z" fill="none" stroke="#5CB88A" stroke-width="1.2" opacity="0.4"/>
  <path d="M 1600 350 L 1630 380 L 1600 410 L 1570 380 Z" fill="none" stroke="#4A90D9" stroke-width="1.2" opacity="0.35"/>
  <path d="M 100 550 L 130 580 L 100 610 L 70 580 Z" fill="none" stroke="#5CB88A" stroke-width="1.2" opacity="0.4"/>
  <path d="M 500 620 L 530 650 L 500 680 L 470 650 Z" fill="none" stroke="#3ABFBF" stroke-width="1.2" opacity="0.4"/>
  <path d="M 850 700 L 880 730 L 850 760 L 820 730 Z" fill="none" stroke="#4A90D9" stroke-width="1.2" opacity="0.35"/>
  <path d="M 1300 850 L 1330 880 L 1300 910 L 1270 880 Z" fill="none" stroke="#5CB88A" stroke-width="1.2" opacity="0.4"/>
  <path d="M 1750 900 L 1780 930 L 1750 960 L 1720 930 Z" fill="none" stroke="#3ABFBF" stroke-width="1.2" opacity="0.35"/>
  <path d="M 450 350 L 480 380 L 450 410 L 420 380 Z" fill="none" stroke="#4A90D9" stroke-width="1.2" opacity="0.4"/>
  <path d="M 1050 150 L 1080 180 L 1050 210 L 1020 180 Z" fill="none" stroke="#3ABFBF" stroke-width="1.2" opacity="0.4"/>
  <path d="M 1500 600 L 1530 630 L 1500 660 L 1470 630 Z" fill="none" stroke="#5CB88A" stroke-width="1.2" opacity="0.35"/>
  <path d="M 200 900 L 230 930 L 200 960 L 170 930 Z" fill="none" stroke="#4A90D9" stroke-width="1.2" opacity="0.4"/>
  <path d="M 950 950 L 980 980 L 950 1010 L 920 980 Z" fill="none" stroke="#3ABFBF" stroke-width="1.2" opacity="0.35"/>

  <!-- TRIANGLES (12) - larger -->
  <path d="M 200 280 L 240 340 L 160 340 Z" fill="none" stroke="#3ABFBF" stroke-width="1.2" opacity="0.4"/>
  <path d="M 650 150 L 690 210 L 610 210 Z" fill="none" stroke="#5CB88A" stroke-width="1.2" opacity="0.35"/>
  <path d="M 1100 280 L 1140 340 L 1060 340 Z" fill="none" stroke="#4A90D9" stroke-width="1.2" opacity="0.4"/>
  <path d="M 1500 180 L 1540 240 L 1460 240 Z" fill="none" stroke="#3ABFBF" stroke-width="1.2" opacity="0.35"/>
  <path d="M 350 550 L 390 610 L 310 610 Z" fill="none" stroke="#4A90D9" stroke-width="1.2" opacity="0.4"/>
  <path d="M 800 600 L 840 660 L 760 660 Z" fill="none" stroke="#5CB88A" stroke-width="1.2" opacity="0.35"/>
  <path d="M 1200 650 L 1240 710 L 1160 710 Z" fill="none" stroke="#3ABFBF" stroke-width="1.2" opacity="0.4"/>
  <path d="M 1650 550 L 1690 610 L 1610 610 Z" fill="none" stroke="#4A90D9" stroke-width="1.2" opacity="0.35"/>
  <path d="M 50 850 L 90 910 L 10 910 Z" fill="none" stroke="#5CB88A" stroke-width="1.2" opacity="0.4"/>
  <path d="M 550 900 L 590 960 L 510 960 Z" fill="none" stroke="#3ABFBF" stroke-width="1.2" opacity="0.35"/>
  <path d="M 1050 850 L 1090 910 L 1010 910 Z" fill="none" stroke="#4A90D9" stroke-width="1.2" opacity="0.4"/>
  <path d="M 1850 850 L 1890 910 L 1810 910 Z" fill="none" stroke="#5CB88A" stroke-width="1.2" opacity="0.35"/>

  <!-- CIRCLES (12) - larger -->
  <circle cx="180" cy="180" r="8" fill="#5CB88A" opacity="0.3"/>
  <circle cx="600" cy="350" r="6" fill="#4A90D9" opacity="0.3"/>
  <circle cx="1000" cy="250" r="7" fill="#3ABFBF" opacity="0.25"/>
  <circle cx="1400" cy="300" r="8" fill="#5CB88A" opacity="0.3"/>
  <circle cx="1800" cy="150" r="6" fill="#4A90D9" opacity="0.25"/>
  <circle cx="350" cy="700" r="7" fill="#3ABFBF" opacity="0.3"/>
  <circle cx="750" cy="850" r="8" fill="#5CB88A" opacity="0.25"/>
  <circle cx="1150" cy="550" r="6" fill="#4A90D9" opacity="0.3"/>
  <circle cx="1550" cy="750" r="7" fill="#3ABFBF" opacity="0.3"/>
  <circle cx="1900" cy="500" r="8" fill="#5CB88A" opacity="0.25"/>
  <circle cx="480" cy="480" r="6" fill="#4A90D9" opacity="0.3"/>
  <circle cx="1680" cy="950" r="7" fill="#3ABFBF" opacity="0.25"/>
</svg>
